PathFileType	3	(X/Y/Z)	D:\minhoCalibration\240510\subject5_KPNP\preferred\preferred02.trc
DataRate	CameraRate	NumFrames	NumMarkers	Units	OrigDataRate	OrigDataStartFrame	OrigNumFrames
200.0	200.0	30	10	mm	200.0	247	151	
Frame#	Time	Left_Ankle_Outer1			Left_Ankle_Inner1			Left_Knee_Outer1			Left_Knee_Inner1			Left_Wrist1			Right_Wrist1			Right_Knee_Inner1			Right_Knee_Outer1			Right_Ankle_Inner1			Right_Ankle_Outer1			
		X1	Y1	Z1	X2	Y2	Z2	X3	Y3	Z3	X4	Y4	Z4	X5	Y5	Z5	X6	Y6	Z6	X7	Y7	Z7	X8	Y8	Z8	X9	Y9	Z9	X10	Y10	Z10	
247	1.225	-635.78741	92.593323	-621.16663	-660.59094	107.81129	-575.88806	-439.98483	530.74518	-613.79138	-471.05469	520.32477	-524.92181	-555.93622	978.96729	-774.52698	-635.47797	1173.6642	-516.05188	-487.34961	916.10962	-74.804085	-512.43024	1009.5684	-77.292099	-900.9082	759.2005	-214.96779	-916.69836	854.90448	-216.8149
248	1.23	-636.62683	93.038918	-619.78711	-660.84375	108.38195	-573.56982	-440.2486	530.63202	-613.61072	-469.93594	519.98804	-524.48401	-561.38928	974.84143	-772.49103	-629.69525	1175.574	-515.12097	-474.4054	920.95929	-75.563652	-495.63593	1015.071	-79.194855	-900.3302	775.42041	-187.62181	-913.18811	871.53058	-190.40263
249	1.235	-637.4389	92.999298	-618.47675	-661.30078	108.45615	-572.02765	-440.51532	530.51361	-613.3501	-468.96829	519.64734	-523.78174	-565.72119	974.1311	-772.30621	-624.20288	1177.2472	-514.40887	-462.2428	925.48584	-76.329376	-479.81979	1020.0777	-81.634605	-898.62219	791.49786	-156.80133	-908.67236	887.98126	-162.78886
250	1.24	-638.16248	93.004959	-617.53949	-661.81586	108.26799	-570.83759	-441.01904	530.2691	-613.05188	-468.3681	519.66687	-522.40125	-569.89142	972.5202	-772.29004	-618.98993	1178.7888	-513.88074	-450.97888	929.80603	-77.344322	-465.17807	1024.6831	-84.394928	-896.11572	807.23004	-125.8402	-902.89929	904.15118	-133.86124
251	1.245	-638.75122	92.738861	-616.98315	-661.96777	107.9601	-570.22186	-441.55719	530.03198	-612.68866	-468.3703	519.46387	-522.61932	-574.82135	969.92334	-770.31915	-614.05566	1180.0601	-513.53619	-440.59985	934.06805	-78.434341	-451.79294	1028.9836	-87.501732	-890.81677	822.23578	-91.758354	-895.87476	919.7514	-104.00925
252	1.25	-639.18085	92.18293	-616.68768	-662.62634	107.4398	-569.49072	-442.26059	529.67749	-612.30292	-468.64053	518.91797	-522.04431	-577.88153	969.35004	-769.8476	-609.4389	1181.1649	-513.37836	-430.99066	938.32648	-79.721062	-439.69977	1033.1038	-90.686134	-884.18103	837.72559	-59.39151	-887.43298	934.80072	-73.155342
253	1.255	-639.57068	91.479813	-616.67505	-662.98224	106.72137	-569.35822	-443.02982	529.26886	-611.92993	-468.96808	518.80707	-520.92871	-579.65515	968.85712	-773.57697	-605.23352	1182.1498	-513.29382	-422.978	942.51935	-80.769554	-429.03558	1036.9431	-94.047821	-874.80463	851.8479	-21.731834	-877.41467	949.47888	-41.331417
254	1.26	-639.9024	90.725769	-616.84888	-663.08386	105.84033	-570.00439	-443.86557	528.74664	-611.63458	-470.13022	517.63824	-521.565	-586.65466	968.00446	-768.02441	-601.3476	1182.8481	-513.3764	-415.06146	946.79858	-82.187599	-420.14658	1040.7832	-97.21962	-862.3078	866.88263	13.859562	-865.71039	963.69934	-8.5805845
255	1.265	-640.2356	89.877007	-616.92151	-663.552	105.07867	-570.1214	-444.73929	528.17145	-611.47046	-471.06488	517.34955	-520.70996	-586.79767	965.59674	-769.96802	-597.85242	1183.4226	-513.51355	-408.74515	951.32458	-83.408005	-412.32422	1044.6953	-100.38818	-848.68805	881.20508	55.318951	-852.17871	977.57672	24.614805
256	1.27	-640.62085	88.90741	-617.1355	-664.4707	103.96483	-570.16809	-445.53302	527.62067	-611.42206	-472.04077	516.56818	-520.87512	-589.50677	965.45477	-768.99957	-594.70477	1183.7998	-513.68628	-403.55444	956.03046	-84.488525	-406.34299	1048.7612	-103.36813	-830.85724	895.56134	91.8423	-836.70557	990.85205	58.477638
257	1.275	-641.10736	87.95414	-617.22235	-664.7923	102.9251	-570.41626	-446.38351	526.98108	-611.57159	-473.02631	515.76807	-521.15759	-591.71545	964.48163	-768.70526	-591.72614	1184.03	-514.00793	-399.6994	961.00647	-85.362442	-402.10522	1052.9618	-106.06895	-812.32581	910.18109	127.65454	-818.9292	1003.886	93.372765
258	1.28	-641.7298	86.903313	-616.99829	-664.85785	101.27799	-571.05127	-447.21011	526.27808	-611.94495	-474.19	514.61346	-522.03674	-592.14478	964.17078	-770.11298	-589.06451	1184.0734	-514.33929	-397.15741	966.25336	-86.105049	-399.70709	1057.2908	-108.42659	-789.59528	924.26715	163.44872	-798.57721	1015.9856	128.33815
259	1.285	-642.49622	85.928741	-616.64752	-665.57855	101.06439	-569.6488	-448.07614	525.49408	-612.48273	-475.02762	514.19385	-521.85364	-594.28693	963.03864	-769.6795	-586.73517	1183.9894	-514.69318	-395.99274	971.70386	-86.637924	-399.07025	1061.5045	-110.37675	-762.55658	938.30823	198.17635	-776.03314	1027.925	163.46472
260	1.29	-643.28247	85.01722	-616.19324	-666.29456	100.04005	-569.1189	-448.95438	524.75159	-613.11719	-475.85007	513.38989	-522.37524	-600.6355	961.93134	-764.80554	-584.65118	1183.7471	-514.95056	-396.44913	977.12073	-87.256981	-400.32791	1065.5331	-111.79301	-733.77356	950.98749	234.80247	-750.84827	1039.454	198.30164
261	1.295	-644.15759	84.110283	-615.59576	-667.383	99.062157	-568.08679	-449.87473	523.96936	-613.89563	-476.56204	512.6745	-523.15527	-601.22333	961.92944	-764.89874	-582.72418	1183.4346	-514.84607	-398.89844	981.85876	-87.983704	-403.27084	1069.1659	-112.73104	-702.99219	962.78101	271.1839	-722.86395	1050.4924	231.76701
262	1.3	-645.16699	83.276947	-614.80353	-667.74445	98.177071	-567.50549	-450.79504	523.26361	-614.82379	-477.08197	512.03052	-523.82574	-601.45123	961.68457	-765.16675	-581.27808	1183.0388	-514.99707	-403.75	985.70917	-88.579659	-407.83655	1072.2883	-112.97169	-667.91205	973.96594	301.92084	-691.93604	1060.915	263.75369
263	1.305	-646.09399	82.526451	-614.16016	-668.49127	97.470383	-566.31012	-451.9726	522.39062	-615.66309	-477.71411	511.13052	-524.98517	-603.35901	960.86475	-764.25873	-580.01971	1182.7227	-515.01868	-409.48221	989.04486	-88.40448	-414.37936	1074.9912	-112.29578	-626.92126	984.54608	325.94061	-658.62512	1071.0482	292.94058
264	1.31	-647.04608	81.616615	-613.21582	-669.35974	96.618919	-565.27417	-453.10815	521.68213	-616.44989	-478.10239	510.59985	-525.43225	-601.18323	960.95636	-765.85132	-579.42914	1182.7295	-514.38855	-417.02945	991.40277	-86.828743	-422.81274	1077.3379	-110.83959	-586.69305	994.21777	348.89386	-622.09009	1080.1163	318.11255
265	1.315	-647.76489	81.084145	-612.42133	-670.03217	95.875702	-564.3147	-454.53845	520.96002	-616.89673	-478.36139	510.3053	-525.14398	-601.39276	960.46863	-764.99817	-578.71796	1182.635	-514.43445	-423.9519	993.80615	-84.002174	-431.82141	1079.5535	-108.6534	-543.42084	1001.5817	364.28424	-583.8576	1087.0504	338.35901
266	1.32	-648.47742	80.665146	-611.71625	-670.29846	95.488976	-563.37372	-455.69388	520.43024	-617.09491	-478.73389	509.9621	-524.93494	-601.24115	960.50726	-763.51459	-578.42126	1182.7621	-513.71777	-430.01492	997.41412	-80.972176	-441.16971	1082.163	-106.31772	-498.84006	1007.2568	375.09872	-543.63098	1091.1013	352.81628
267	1.325	-648.9809	80.436676	-611.31665	-670.40527	95.086891	-562.97534	-456.82709	520.07214	-616.68097	-479.0567	509.70947	-524.22021	-601.74298	961.12482	-760.23669	-578.4931	1183.4336	-512.67767	-437.88217	1001.2063	-77.113266	-449.98615	1086.1835	-103.79582	-454.68863	1009.948	378.28516	-503.68936	1092.2164	360.98944
268	1.33	-649.26862	80.134178	-610.71399	-670.93555	94.709778	-562.21692	-457.7088	519.91852	-615.88843	-479.33005	509.61368	-523.25592	-599.3551	960.82965	-759.21948	-578.66766	1183.7772	-510.72144	-443.84363	1005.3743	-74.364296	-456.40103	1091.7271	-101.30865	-428.19455	1009.8787	375.50864	-475.55832	1093.7905	359.49435
269	1.335	-649.68408	80.07	-610.36383	-671.00122	94.682457	-561.82812	-458.63757	519.90167	-614.302	-479.61063	509.37564	-522.2514	-599.92096	961.18915	-754.59833	-579.20392	1184.1532	-508.3205	-445.52286	1010.1113	-72.809143	-459.27112	1097.0306	-98.838364	-416.21048	1004.9818	370.23932	-466.51825	1090.9438	359.08026
270	1.34	-649.64777	80.195961	-610.22571	-671.19635	94.698975	-561.62878	-459.26318	520.21338	-612.11047	-480.16382	509.42761	-519.98383	-596.33746	961.38904	-752.78528	-580.30756	1184.6375	-505.85889	-442.59915	1015.1435	-73.689056	-457.73117	1101.3748	-98.296104	-412.04034	999.91443	368.87308	-463.86472	1085.861	359.90826
271	1.345	-649.52582	80.409744	-610.12646	-671.31458	94.714211	-561.57782	-459.65976	520.68951	-609.23083	-480.80399	509.89108	-516.7843	-594.43402	961.79688	-749.96667	-582.04321	1184.6044	-503.06897	-438.79788	1018.2911	-75.220238	-454.14709	1104.0828	-98.215714	-411.43155	996.73608	369.39853	-467.97992	1081.3326	360.9133
272	1.35	-649.20227	80.661247	-610.06354	-670.7951	94.16143	-562.84229	-459.91833	521.22986	-605.57965	-481.88867	509.86932	-513.92676	-592.25586	962.14569	-747.97272	-584.65198	1184.1974	-500.09454	-436.24628	1019.1989	-76.953056	-451.91705	1104.8064	-98.693687	-414.40887	994.72101	368.8446	-474.74338	1075.6573	362.1174
273	1.355	-648.75629	80.937119	-609.92188	-671.44196	94.738243	-561.58167	-459.86801	521.90247	-601.47418	-483.21454	510.08755	-510.26398	-589.42267	962.99243	-746.94495	-587.69714	1183.2433	-497.39029	-434.55255	1018.785	-77.5522	-450.09323	1104.2556	-98.866219	-416.67255	991.77869	369.55951	-480.19739	1071.2986	363.52155
274	1.36	-648.37012	81.44381	-609.93939	-671.41125	94.731613	-561.672	-459.70627	522.62231	-596.88062	-484.92142	510.34308	-506.35922	-586.91278	963.21948	-745.82288	-591.36139	1182.3812	-494.79938	-433.89505	1018.369	-77.06424	-447.85638	1103.4551	-98.463028	-422.94794	989.12402	374.78851	-483.67105	1068.545	365.37875
275	1.365	-647.8421	81.778	-609.90308	-670.97797	94.039719	-562.64337	-459.63275	523.32025	-592.0058	-486.86102	510.76651	-501.91492	-586.34729	963.91638	-742.42706	-595.05267	1182.1176	-493.00687	-434.43219	1018.3969	-76.202469	-445.35321	1102.9757	-97.58979	-430.31494	982.67871	374.82391	-486.78796	1065.7234	366.28778
276	1.37	-647.42212	82.133224	-609.81879	-671.02429	94.017105	-562.90466	-459.7276	523.93542	-587.13702	-489.26346	510.87439	-498.25513	-584.70789	964.46442	-740.638	-598.88	1182.3318	-491.53479	-435.69522	1018.3945	-74.890724	-444.17719	1102.0889	-96.727631	-436.0325	976.26813	372.04544	-490.48938	1061.5269	366.98303
